<svg width="1024" height="1024" viewBox="0 0 1024 1024" fill="none" xmlns="http://www.w3.org/2000/svg">
<path fill-rule="evenodd" clip-rule="evenodd" d="M384 129C525.385 129 640 243.615 640 385C640 512.328 547.043 617.943 425.291 637.686C417.205 638.997 411 645.812 411 654.002V1176.5H357V654.002C357 645.812 350.795 638.997 342.709 637.686C220.957 617.943 128 512.328 128 385C128 243.615 242.615 129 384 129ZM384 169C264.706 169 168 265.706 168 385C168 504.294 264.706 601 384 601C503.294 601 600 504.294 600 385C600 265.706 503.294 169 384 169Z" fill="#D1D1D6" style="fill:#D1D1D6;fill:color(display-p3 0.8196 0.8196 0.8392);fill-opacity:1;"/>
<path d="M274.92 512C257.169 512 247 501.368 247 482.847V297.814C247 271.919 261.822 257 288.019 257C310.08 257 321.972 265.917 330.934 289.068L382.811 419.74H384.189L435.894 289.068C445.028 265.917 456.92 257 479.153 257C505.178 257 520 271.748 520 297.814V482.847C520 501.368 509.831 512 492.08 512C474.5 512 464.331 501.368 464.331 482.847V353.718H463.125L407.801 489.878C403.148 501.539 395.737 506.855 383.672 506.855C371.608 506.855 363.68 501.539 359.199 489.878L304.047 353.718H302.669V482.847C302.669 501.368 292.5 512 274.92 512Z" fill="white" style="fill:white;fill-opacity:1;"/>
</svg>
