<svg width="1024" height="1024" viewBox="0 0 1024 1024" fill="none" xmlns="http://www.w3.org/2000/svg">
<path fill-rule="evenodd" clip-rule="evenodd" d="M793.6 384C829.443 384 847.365 384 861.056 390.976C873.098 397.111 882.889 406.902 889.024 418.944C896 432.635 896 450.557 896 486.4V793.6C896 829.443 896 847.365 889.024 861.056L888.438 862.178C882.274 873.706 872.722 883.08 861.056 889.024L860.41 889.347C846.8 896 828.883 896 793.6 896H754.6C745.639 896 741.159 896 737.736 897.744C734.726 899.278 732.278 901.726 730.744 904.736C729 908.159 729 912.639 729 921.6V1183H679V921.599C679 912.639 679 908.158 677.256 904.736C675.722 901.725 673.275 899.278 670.264 897.744C666.842 896 662.361 896 653.401 895.999L607.886 895.998C576.333 895.973 559.779 895.564 546.944 889.024C535.278 883.08 525.726 873.706 519.562 862.178L518.976 861.056C512 847.365 512 829.443 512 793.6V486.4C512 451.117 512 433.2 518.653 419.59L518.976 418.944C524.92 407.278 534.294 397.726 545.822 391.562L546.944 390.976C559.779 384.436 576.333 384.028 607.886 384.002L793.6 384ZM614.4 416C595.951 416 584.037 416.025 574.971 416.766C566.278 417.476 563.055 418.681 561.473 419.487C555.451 422.555 550.555 427.451 547.487 433.473C546.681 435.055 545.476 438.278 544.766 446.971C544.025 456.037 544 467.951 544 486.4V793.6C544 812.049 544.025 823.962 544.766 833.029C545.476 841.722 546.681 844.945 547.487 846.527C550.555 852.549 555.451 857.445 561.473 860.513C563.055 861.319 566.278 862.524 574.971 863.234C584.037 863.975 595.951 864 614.4 864H793.6C812.049 864 823.962 863.975 833.029 863.234C841.722 862.524 844.945 861.319 846.527 860.513C852.549 857.445 857.445 852.549 860.513 846.527C861.319 844.945 862.524 841.722 863.234 833.029C863.975 823.962 864 812.049 864 793.6V486.4C864 467.951 863.975 456.037 863.234 446.971C862.524 438.278 861.319 435.055 860.513 433.473C857.445 427.451 852.549 422.555 846.527 419.487C844.945 418.681 841.722 417.476 833.029 416.766C823.962 416.025 812.049 416 793.6 416H614.4Z" fill="#D1D1D6" style="fill:#D1D1D6;fill:color(display-p3 0.8196 0.8196 0.8392);fill-opacity:1;"/>
<path d="M660.084 640C666.861 640 672.069 637.866 675.709 633.598C679.474 629.331 681.356 623.556 681.356 616.276V585.209H714.112C733.941 585.209 749.88 579.498 761.928 568.075C773.976 556.653 780 541.527 780 522.699C780 503.745 773.976 488.556 761.928 477.134C750.005 465.711 734.192 460 714.489 460H661.214C653.809 460 648.224 462.134 644.459 466.402C640.82 470.669 639 476.569 639 484.1V616.276C639 623.556 640.82 629.331 644.459 633.598C648.099 637.866 653.307 640 660.084 640ZM681.356 553.954V491.444H708.276C718.065 491.444 725.721 494.205 731.243 499.728C736.765 505.126 739.526 512.782 739.526 522.699C739.526 532.615 736.765 540.335 731.243 545.858C725.846 551.255 718.191 553.954 708.276 553.954H681.356Z" fill="white" style="fill:white;fill-opacity:1;"/>
<path d="M790 757.042C790 762.083 788.358 766.246 785.074 769.531L730.805 823.648C727.294 827.216 723.416 829 719.169 829C714.017 829 709.912 827.442 706.855 824.327C703.854 821.269 702.353 817.474 702.353 812.943C702.353 810.281 702.891 807.959 703.967 805.977C705.043 803.995 706.402 802.239 708.044 800.71L727.068 781.935L749.574 761.035L758.237 772.25L719.594 774.119H635.005C629.569 774.119 625.21 772.561 621.926 769.446C618.642 766.331 617 762.196 617 757.042C617 751.888 618.642 747.754 621.926 744.639C625.21 741.524 629.569 739.966 635.005 739.966H719.594L758.237 741.835L749.574 753.135L727.068 732.15L708.044 713.29C706.402 711.761 705.043 710.005 703.967 708.023C702.891 706.041 702.353 703.719 702.353 701.057C702.353 696.526 703.854 692.731 706.855 689.673C709.912 686.558 714.017 685 719.169 685C721.151 685 723.161 685.453 725.199 686.359C727.238 687.265 729.106 688.596 730.805 690.352L785.074 744.554C788.358 747.839 790 752.002 790 757.042Z" fill="white" style="fill:white;fill-opacity:1;"/>
</svg>
