<svg width="1024" height="1024" viewBox="0 0 1024 1024" fill="none" xmlns="http://www.w3.org/2000/svg">
<rect width="1024" height="1024" fill="white"/>
<circle cx="318.5" cy="334.5" r="186.5" fill="#D9D9D9"/>
<path d="M318.5 558C287.677 558 258.754 552.157 231.729 540.471C204.705 528.93 180.967 512.935 160.516 492.484C140.065 472.033 123.997 448.295 112.31 421.271C100.77 394.246 95 365.323 95 334.5C95 303.677 100.77 274.754 112.31 247.729C123.997 220.705 140.065 196.967 160.516 176.516C180.967 155.919 204.705 139.85 231.729 128.31C258.754 116.77 287.677 111 318.5 111C349.323 111 378.246 116.77 405.271 128.31C432.295 139.85 456.033 155.919 476.484 176.516C496.935 196.967 512.93 220.705 524.471 247.729C536.157 274.754 542 303.677 542 334.5C542 365.323 536.157 394.246 524.471 421.271C512.93 448.295 496.935 472.033 476.484 492.484C456.033 512.935 432.295 528.93 405.271 540.471C378.246 552.157 349.323 558 318.5 558ZM318.5 520.75C344.21 520.75 368.313 515.929 390.809 506.288C413.305 496.647 433.099 483.281 450.19 466.19C467.281 449.099 480.647 429.305 490.288 406.809C499.929 384.313 504.75 360.21 504.75 334.5C504.75 308.79 499.929 284.687 490.288 262.191C480.647 239.549 467.281 219.755 450.19 202.81C433.099 185.719 413.305 172.353 390.809 162.712C368.313 153.071 344.21 148.25 318.5 148.25C292.79 148.25 268.687 153.071 246.191 162.712C223.695 172.353 203.901 185.719 186.81 202.81C169.719 219.755 156.353 239.549 146.712 262.191C137.071 284.687 132.25 308.79 132.25 334.5C132.25 360.21 137.071 384.313 146.712 406.809C156.353 429.305 169.719 449.099 186.81 466.19C203.901 483.281 223.695 496.647 246.191 506.288C268.687 515.929 292.79 520.75 318.5 520.75ZM233.044 436.171C222.526 436.171 217.268 430.181 217.268 418.203V250.359C217.268 244.37 219.167 239.476 222.965 235.678C226.909 231.88 231.875 229.981 237.865 229.981C248.236 229.981 255.394 234.728 259.338 244.224L317.624 389.937H318.938L377.004 244.224C380.802 234.728 387.887 229.981 398.259 229.981C404.394 229.981 409.361 231.88 413.159 235.678C416.957 239.476 418.856 244.37 418.856 250.359V418.203C418.856 423.9 417.468 428.355 414.693 431.569C411.917 434.637 407.973 436.171 402.86 436.171C392.343 436.171 387.084 430.181 387.084 418.203V291.772H385.331L334.715 417.984C331.501 425.726 325.877 429.597 317.843 429.597C309.954 429.597 304.403 425.726 301.19 417.984L250.793 291.772H249.04V418.203C249.04 423.9 247.579 428.355 244.657 431.569C241.882 434.637 238.011 436.171 233.044 436.171Z" fill="black"/>
<path d="M598.735 924C575.824 924 558.603 918.309 547.074 906.926C535.691 895.689 530 878.833 530 856.359V588.86C530 566.24 535.691 549.311 547.074 538.074C558.603 526.691 575.824 521 598.735 521H864.265C887.176 521 904.324 526.691 915.707 538.074C927.236 549.457 933 566.386 933 588.86V856.359C933 878.833 927.236 895.689 915.707 906.926C904.324 918.309 887.176 924 864.265 924H598.735ZM683.232 825.932C689.215 825.932 693.739 824.107 696.804 820.459C699.869 816.665 701.401 811.63 701.401 805.355V756.102H745.838C767.874 756.102 785.605 749.753 799.032 737.057C812.603 724.361 819.389 707.651 819.389 686.928C819.389 666.206 812.603 649.423 799.032 636.581C785.605 623.738 767.947 617.317 746.057 617.317H683.013C677.176 617.317 672.725 619.214 669.66 623.009C666.741 626.803 665.282 631.765 665.282 637.894V805.355C665.282 811.484 666.814 816.446 669.879 820.24C672.944 824.034 677.395 825.932 683.232 825.932ZM701.401 728.52V645.118H740.803C753.938 645.118 764.372 648.839 772.106 656.282C779.841 663.725 783.708 673.94 783.708 686.928C783.708 699.771 779.841 709.913 772.106 717.356C764.518 724.798 754.083 728.52 740.803 728.52H701.401Z" fill="black"/>
</svg>
