<svg width="1024" height="1024" viewBox="0 0 1024 1024" fill="none" xmlns="http://www.w3.org/2000/svg">
<path fill-rule="evenodd" clip-rule="evenodd" d="M384 129C525.385 129 640 243.615 640 385C640 512.328 547.043 617.943 425.291 637.686C417.205 638.997 411 645.812 411 654.002V1024H357V654.002C357 645.812 350.795 638.997 342.709 637.686C220.957 617.943 128 512.328 128 385C128 243.615 242.615 129 384 129ZM384 161C260.288 161 160 261.288 160 385C160 508.712 260.288 609 384 609C507.712 609 608 508.712 608 385C608 261.288 507.712 161 384 161Z" fill="#D1D1D6" style="fill:#D1D1D6;fill:color(display-p3 0.8196 0.8196 0.8392);fill-opacity:1;"/>
</svg>
