<svg width="1024" height="1024" viewBox="0 0 1024 1024" fill="none" xmlns="http://www.w3.org/2000/svg">
<rect x="512" y="384" width="384" height="512" rx="64" fill="#007AFF" style="fill:#007AFF;fill:color(display-p3 0.0000 0.4784 1.0000);fill-opacity:1;"/>
<path d="M660.084 640C666.861 640 672.069 637.866 675.709 633.598C679.474 629.331 681.356 623.556 681.356 616.276V585.209H714.112C733.941 585.209 749.88 579.498 761.928 568.075C773.976 556.653 780 541.527 780 522.699C780 503.745 773.976 488.556 761.928 477.134C750.005 465.711 734.192 460 714.489 460H661.214C653.809 460 648.224 462.134 644.459 466.402C640.82 470.669 639 476.569 639 484.1V616.276C639 623.556 640.82 629.331 644.459 633.598C648.099 637.866 653.307 640 660.084 640ZM681.356 553.954V491.444H708.276C718.065 491.444 725.721 494.205 731.243 499.728C736.765 505.126 739.526 512.782 739.526 522.699C739.526 532.615 736.765 540.335 731.243 545.858C725.846 551.255 718.191 553.954 708.276 553.954H681.356Z" fill="white" style="fill:white;fill-opacity:1;"/>
<path d="M796 757.042C796 762.083 794.358 766.246 791.074 769.531L736.805 823.648C733.294 827.216 729.416 829 725.169 829C720.017 829 715.912 827.442 712.855 824.327C709.854 821.269 708.353 817.474 708.353 812.943C708.353 810.281 708.891 807.959 709.967 805.977C711.043 803.995 712.402 802.239 714.044 800.71L733.068 781.935L755.574 761.035L764.237 772.25L725.594 774.119H641.005C635.569 774.119 631.21 772.561 627.926 769.446C624.642 766.331 623 762.196 623 757.042C623 751.888 624.642 747.754 627.926 744.639C631.21 741.524 635.569 739.966 641.005 739.966H725.594L764.237 741.835L755.574 753.135L733.068 732.15L714.044 713.29C712.402 711.761 711.043 710.005 709.967 708.023C708.891 706.041 708.353 703.719 708.353 701.057C708.353 696.526 709.854 692.731 712.855 689.673C715.912 686.558 720.017 685 725.169 685C727.151 685 729.161 685.453 731.199 686.359C733.238 687.265 735.106 688.596 736.805 690.352L791.074 744.554C794.358 747.839 796 752.002 796 757.042Z" fill="white" style="fill:white;fill-opacity:1;"/>
</svg>
