<svg width="1024" height="1024" viewBox="0 0 1024 1024" fill="none" xmlns="http://www.w3.org/2000/svg">
<circle cx="384" cy="385" r="256" fill="#30B0C7" style="fill:#30B0C7;fill:color(display-p3 0.1882 0.6902 0.7804);fill-opacity:1;"/>
<path fill-rule="evenodd" clip-rule="evenodd" d="M384 130C419.344 130 452.479 136.614 483.405 149.842C514.331 163.07 541.494 181.443 564.894 204.96C588.293 228.313 606.619 255.423 619.873 286.289C633.291 317.155 640 350.225 640 385.5C640 420.775 633.291 453.845 619.873 484.711C606.619 515.577 588.293 542.687 564.894 566.04C541.494 589.394 514.331 607.685 483.405 620.913C464.845 628.95 445.489 634.574 425.338 637.787C417.228 639.08 411 645.901 411 654.113V1024H357V654.113C357 645.901 350.772 639.08 342.662 637.787C322.511 634.574 303.155 628.95 284.595 620.913C253.669 607.685 226.424 589.393 202.861 566.04C179.462 542.687 161.135 515.577 147.881 484.711C134.627 453.845 128 420.775 128 385.5C128 350.225 134.627 317.155 147.881 286.289C161.135 255.423 179.462 228.313 202.861 204.96C226.424 181.443 253.669 163.07 284.595 149.842C315.521 136.614 348.656 130 384 130ZM384 186.098C356.346 186.098 330.411 191.242 306.193 201.53C282.14 211.819 260.95 226.109 242.623 244.399C224.296 262.69 209.979 283.921 199.67 308.091C189.361 332.097 184.207 357.901 184.207 385.5C184.207 412.936 189.361 438.739 199.67 462.909C209.979 486.916 224.296 508.146 242.623 526.601C260.95 544.891 282.14 559.181 306.193 569.47C330.411 579.758 356.346 584.902 384 584.902C411.653 584.902 437.507 579.758 461.561 569.47C485.778 559.181 506.969 544.891 525.132 526.601C543.458 508.147 557.775 486.916 568.084 462.909C578.556 438.739 583.793 412.936 583.793 385.5C583.793 357.9 578.556 332.098 568.084 308.091C557.775 283.921 543.458 262.69 525.132 244.399C506.969 226.109 485.778 211.819 461.561 201.53C437.507 191.242 411.653 186.098 384 186.098Z" fill="white" style="fill:white;fill-opacity:1;"/>
</svg>
