<svg width="1024" height="1024" viewBox="0 0 1024 1024" fill="none" xmlns="http://www.w3.org/2000/svg">
<rect x="512" y="384" width="384" height="512" rx="64" fill="#007AFF" style="fill:#007AFF;fill:color(display-p3 0.0000 0.4784 1.0000);fill-opacity:1;"/>
<path d="M793.6 384C829.443 384 847.365 384 861.056 390.976C873.098 397.111 882.889 406.902 889.024 418.944C896 432.635 896 450.557 896 486.4V793.6C896 829.443 896 847.365 889.024 861.056L888.438 862.178C882.274 873.706 872.722 883.08 861.056 889.024L860.41 889.347C846.8 896 828.883 896 793.6 896H754.6C745.639 896 741.159 896 737.736 897.744C734.726 899.278 732.278 901.726 730.744 904.736C729 908.159 729 912.639 729 921.6V1024H679V921.6C679 912.639 679 908.159 677.256 904.736C675.722 901.726 673.274 899.278 670.264 897.744C666.841 896 662.361 896 653.4 896H614.4L607.886 895.998C576.333 895.972 559.779 895.564 546.944 889.024C535.278 883.08 525.726 873.706 519.562 862.178L518.976 861.056C512 847.365 512 829.443 512 793.6V486.4C512 451.117 512 433.2 518.653 419.59L518.976 418.944C524.92 407.278 534.294 397.726 545.822 391.562L546.944 390.976C559.779 384.436 576.333 384.028 607.886 384.002L614.4 384H793.6ZM614.4 408C596.083 408 583.787 408.018 574.319 408.792C565.132 409.543 560.739 410.883 557.841 412.359C550.314 416.194 544.194 422.314 540.359 429.841C538.883 432.739 537.543 437.132 536.792 446.319C536.018 455.787 536 468.083 536 486.4V793.6C536 811.917 536.018 824.213 536.792 833.681C537.543 842.868 538.883 847.261 540.359 850.159C544.194 857.686 550.314 863.806 557.841 867.641C560.739 869.117 565.132 870.457 574.319 871.208C583.787 871.982 596.083 872 614.4 872H793.6C811.917 872 824.213 871.982 833.681 871.208C842.868 870.457 847.261 869.117 850.159 867.641C857.686 863.806 863.806 857.686 867.641 850.159C869.117 847.261 870.457 842.868 871.208 833.681C871.982 824.213 872 811.917 872 793.6V486.4C872 468.083 871.982 455.787 871.208 446.319C870.457 437.132 869.117 432.739 867.641 429.841C863.806 422.314 857.686 416.194 850.159 412.359C847.261 410.883 842.868 409.543 833.681 408.792C825.396 408.115 814.947 408.016 800.193 408.002L793.6 408H614.4Z" fill="#D1D1D6" style="fill:#D1D1D6;fill:color(display-p3 0.8196 0.8196 0.8392);fill-opacity:1;"/>
</svg>
