<svg width="1024" height="1024" viewBox="0 0 1024 1024" fill="none" xmlns="http://www.w3.org/2000/svg">
<path d="M284 465.987C284 479.996 290.166 487 302.498 487C308.447 487 313.09 485.176 316.427 481.528C319.764 477.88 321.432 472.7 321.432 465.987V353.262H323.391L365.175 464.017C368.512 472.918 374.678 477.369 383.674 477.369C392.814 477.369 399.053 472.918 402.39 464.017L444.609 353.262H446.568V465.987C446.568 479.996 452.807 487 465.284 487C471.232 487 475.803 485.176 478.995 481.528C482.332 477.88 484 472.7 484 465.987V308.172C484 300.73 481.679 294.674 477.036 290.004C472.393 285.335 466.227 283 458.538 283C445.335 283 436.485 289.494 431.987 302.481L384.979 427.682H383.456L336.231 302.481C331.588 289.494 322.665 283 309.462 283C301.918 283 295.752 285.335 290.964 290.004C286.321 294.674 284 300.73 284 308.172V465.987Z" fill="white" style="fill:white;fill-opacity:1;"/>
</svg>
