<svg width="1024" height="1024" viewBox="0 0 1024 1024" fill="none" xmlns="http://www.w3.org/2000/svg">
<path d="M660.084 640C666.861 640 672.069 637.866 675.709 633.598C679.474 629.331 681.356 623.556 681.356 616.276V585.209H714.112C733.941 585.209 749.88 579.498 761.928 568.075C773.976 556.653 780 541.527 780 522.699C780 503.745 773.976 488.556 761.928 477.134C750.005 465.711 734.192 460 714.489 460H661.214C653.809 460 648.224 462.134 644.459 466.402C640.82 470.669 639 476.569 639 484.1V616.276C639 623.556 640.82 629.331 644.459 633.598C648.099 637.866 653.307 640 660.084 640ZM681.356 553.954V491.444H708.276C718.065 491.444 725.721 494.205 731.243 499.728C736.765 505.126 739.526 512.782 739.526 522.699C739.526 532.615 736.765 540.335 731.243 545.858C725.846 551.255 718.191 553.954 708.276 553.954H681.356Z" fill="white" style="fill:white;fill-opacity:1;"/>
<path d="M802.028 765.532C802.028 769.348 800.794 772.499 798.327 774.985L757.546 815.949C754.909 818.65 751.994 820 748.803 820C744.931 820 741.847 818.821 739.549 816.463C737.294 814.148 736.167 811.276 736.167 807.846C736.167 805.831 736.571 804.073 737.38 802.573C738.188 801.072 739.209 799.743 740.443 798.586L754.738 784.374L771.65 768.555L778.16 777.043L749.122 778.458L618.53 778.458C614.445 778.458 611.169 777.279 608.702 774.921C606.234 772.563 605 769.433 605 765.532C605 761.631 606.234 758.501 608.702 756.143C611.169 753.785 614.445 752.606 618.53 752.606L749.122 752.606L778.16 754.021L771.65 762.574L754.738 746.69L740.443 732.414C739.209 731.257 738.188 729.928 737.38 728.427C736.571 726.927 736.167 725.169 736.167 723.154C736.167 719.724 737.294 716.852 739.549 714.537C741.847 712.179 744.931 711 748.803 711C750.292 711 751.803 711.343 753.334 712.029C754.866 712.715 756.27 713.722 757.546 715.051L798.327 756.079C800.794 758.566 802.028 761.717 802.028 765.532Z" fill="white" style="fill:white;fill-opacity:1;"/>
</svg>
