<svg width="412" height="411" viewBox="0 0 412 411" fill="none" xmlns="http://www.w3.org/2000/svg">
<rect x="72" y="72" width="268" height="268" fill="white"/>
<path d="M74.0551 411C49.8798 411 31.4571 404.753 18.7869 392.259C6.26228 379.91 0 361.822 0 337.996V73.2216C0 49.3955 6.26228 31.2354 18.7869 18.7413C31.4571 6.24708 49.8798 0 74.0551 0H337.945C362.12 0 380.47 6.24708 392.995 18.7413C405.665 31.2354 412 49.3955 412 73.2216V337.996C412 361.822 405.665 379.91 392.995 392.259C380.47 404.753 362.12 411 337.945 411H74.0551ZM157.285 309.884C165.15 309.884 171.193 307.415 175.417 302.475C179.786 297.536 181.97 290.853 181.97 282.426V246.469H219.981C242.991 246.469 261.487 239.859 275.468 226.638C289.449 213.418 296.439 195.911 296.439 174.119C296.439 152.182 289.449 134.603 275.468 121.382C261.632 108.162 243.282 101.551 220.418 101.551H158.596C150.004 101.551 143.523 104.021 139.154 108.961C134.93 113.9 132.819 120.729 132.819 129.445V282.426C132.819 290.853 134.93 297.536 139.154 302.475C143.377 307.415 149.421 309.884 157.285 309.884ZM181.97 210.294V137.944H213.209C224.568 137.944 233.452 141.141 239.86 147.533C246.268 153.78 249.472 162.642 249.472 174.119C249.472 185.596 246.268 194.531 239.86 200.924C233.598 207.171 224.714 210.294 213.209 210.294H181.97Z" fill="#007AFF"/>
</svg>
