<svg width="1024" height="1024" viewBox="0 0 1024 1024" fill="none" xmlns="http://www.w3.org/2000/svg">
<path fill-rule="evenodd" clip-rule="evenodd" d="M384 129C525.385 129 640 243.615 640 385C640 512.328 547.043 617.943 425.291 637.686C417.205 638.997 411 645.812 411 654.002V1024H357V654.002C357 645.812 350.795 638.997 342.709 637.686C220.957 617.943 128 512.328 128 385C128 243.615 242.615 129 384 129ZM384 161C260.288 161 160 261.288 160 385C160 508.712 260.288 609 384 609C507.712 609 608 508.712 608 385C608 261.288 507.712 161 384 161Z" fill="#D1D1D6" style="fill:#D1D1D6;fill:color(display-p3 0.8196 0.8196 0.8392);fill-opacity:1;"/>
<path d="M269 466.921C269 487.64 278.635 498 297.905 498C306.876 498 313.936 495.348 319.086 490.044C324.236 484.574 326.811 476.866 326.811 466.921V371.944H329.303L356.962 459.711C361.115 473.137 369.67 479.85 382.628 479.85C395.918 479.85 404.722 473.22 409.041 459.959L437.947 371.944H440.439V466.921C440.439 487.64 449.991 498 469.095 498C478.231 498 485.292 495.348 490.275 490.044C495.425 484.574 498 476.866 498 466.921V311.278C498 299.178 494.179 289.482 486.538 282.188C479.062 274.729 469.095 271 456.635 271C433.877 271 419.092 282.769 412.281 306.306L384.621 398.05H382.628L354.968 306.306C347.991 282.769 333.206 271 310.614 271C297.988 271 287.855 274.729 280.213 282.188C272.738 289.482 269 299.178 269 311.278V466.921Z" fill="white" style="fill:white;fill-opacity:1;"/>
</svg>
