<svg width="1024" height="1024" viewBox="0 0 1024 1024" fill="none" xmlns="http://www.w3.org/2000/svg">
<path d="M793.6 384C829.443 384 847.365 384 861.056 390.976C873.098 397.111 882.889 406.902 889.024 418.944C896 432.635 896 450.557 896 486.4V793.6C896 829.443 896 847.365 889.024 861.056L888.438 862.178C882.274 873.706 872.722 883.08 861.056 889.024L860.41 889.347C846.8 896 828.883 896 793.6 896H754.6C745.639 896 741.159 896 737.736 897.744C734.726 899.278 732.278 901.726 730.744 904.736C729 908.159 729 912.639 729 921.6V1024H679V921.6C679 912.639 679 908.159 677.256 904.736C675.722 901.726 673.274 899.278 670.264 897.744C666.841 896 662.361 896 653.4 896H614.4L607.886 895.998C576.333 895.972 559.779 895.564 546.944 889.024C535.278 883.08 525.726 873.706 519.562 862.178L518.976 861.056C512 847.365 512 829.443 512 793.6V486.4C512 451.117 512 433.2 518.653 419.59L518.976 418.944C524.92 407.278 534.294 397.726 545.822 391.562L546.944 390.976C559.779 384.436 576.333 384.028 607.886 384.002L614.4 384H793.6ZM614.4 408C596.083 408 583.787 408.018 574.319 408.792C565.132 409.543 560.739 410.883 557.841 412.359C550.314 416.194 544.194 422.314 540.359 429.841C538.883 432.739 537.543 437.132 536.792 446.319C536.018 455.787 536 468.083 536 486.4V793.6C536 811.917 536.018 824.213 536.792 833.681C537.543 842.868 538.883 847.261 540.359 850.159C544.194 857.686 550.314 863.806 557.841 867.641C560.739 869.117 565.132 870.457 574.319 871.208C583.787 871.982 596.083 872 614.4 872H793.6C811.917 872 824.213 871.982 833.681 871.208C842.868 870.457 847.261 869.117 850.159 867.641C857.686 863.806 863.806 857.686 867.641 850.159C869.117 847.261 870.457 842.868 871.208 833.681C871.982 824.213 872 811.917 872 793.6V486.4C872 468.083 871.982 455.787 871.208 446.319C870.457 437.132 869.117 432.739 867.641 429.841C863.806 422.314 857.686 416.194 850.159 412.359C847.261 410.883 842.868 409.543 833.681 408.792C825.396 408.115 814.947 408.016 800.193 408.002L793.6 408H614.4Z" fill="#D1D1D6" style="fill:#D1D1D6;fill:color(display-p3 0.8196 0.8196 0.8392);fill-opacity:1;"/>
<path d="M660.084 640C666.861 640 672.069 637.866 675.709 633.598C679.474 629.331 681.356 623.556 681.356 616.276V585.209H714.112C733.941 585.209 749.88 579.498 761.928 568.075C773.976 556.653 780 541.527 780 522.699C780 503.745 773.976 488.556 761.928 477.134C750.005 465.711 734.192 460 714.489 460H661.214C653.809 460 648.224 462.134 644.459 466.402C640.82 470.669 639 476.569 639 484.1V616.276C639 623.556 640.82 629.331 644.459 633.598C648.099 637.866 653.307 640 660.084 640ZM681.356 553.954V491.444H708.276C718.065 491.444 725.721 494.205 731.243 499.728C736.765 505.126 739.526 512.782 739.526 522.699C739.526 532.615 736.765 540.335 731.243 545.858C725.846 551.255 718.191 553.954 708.276 553.954H681.356Z" fill="white" style="fill:white;fill-opacity:1;"/>
<path d="M796 757.042C796 762.083 794.358 766.246 791.074 769.531L736.805 823.648C733.294 827.216 729.416 829 725.169 829C720.017 829 715.912 827.442 712.855 824.327C709.854 821.269 708.353 817.474 708.353 812.943C708.353 810.281 708.891 807.959 709.967 805.977C711.043 803.995 712.402 802.239 714.044 800.71L733.068 781.935L755.574 761.035L764.237 772.25L725.594 774.119H641.005C635.569 774.119 631.21 772.561 627.926 769.446C624.642 766.331 623 762.196 623 757.042C623 751.888 624.642 747.754 627.926 744.639C631.21 741.524 635.569 739.966 641.005 739.966H725.594L764.237 741.835L755.574 753.135L733.068 732.15L714.044 713.29C712.402 711.761 711.043 710.005 709.967 708.023C708.891 706.041 708.353 703.719 708.353 701.057C708.353 696.526 709.854 692.731 712.855 689.673C715.912 686.558 720.017 685 725.169 685C727.151 685 729.161 685.453 731.199 686.359C733.238 687.265 735.106 688.596 736.805 690.352L791.074 744.554C794.358 747.839 796 752.002 796 757.042Z" fill="white" style="fill:white;fill-opacity:1;"/>
</svg>
